<?xml version="1.0" encoding="UTF-8" standalone="no"?>
<svg width="50%" height="50%" viewBox="0 0 620 263" version="1.1" xmlns="http://www.w3.org/2000/svg" xmlns:xlink="http://www.w3.org/1999/xlink">
    <!-- Generator: Sketch 3.7.2 (28276) - http://www.bohemiancoding.com/sketch -->
    <title>sssc</title>
    <desc>Created with Sketch.</desc>
    <defs>
        <path d="M581.255151,-2.84217094e-14 C585.105985,0 589.109581,3.59127976 590.180506,8.00408951 L618.919648,162.99591 C619.486179,167.416447 616.462546,171 612.169405,171 L6.83059518,171 C2.54169849,171 -0.485200662,167.40872 0.0803524297,162.99591 L28.819494,8.00408951 C29.8923065,3.58355294 33.8902041,-2.84217094e-14 37.7448491,-2.84217094e-14 L581.255151,-2.84217094e-14 Z" id="path-1"></path>
        <mask id="mask-2" maskContentUnits="userSpaceOnUse" maskUnits="objectBoundingBox" x="0" y="0" width="618.975488" height="171" fill="white">
            <use xlink:href="#path-1"></use>
        </mask>
        <polygon id="path-3" points="619 166 610.236723 211 8.76327705 209.127975 4.54747351e-13 167.872025"></polygon>
        <mask id="mask-4" maskContentUnits="userSpaceOnUse" maskUnits="objectBoundingBox" x="0" y="0" width="619" height="45" fill="white">
            <use xlink:href="#path-3"></use>
        </mask>
        <path d="M15,33.4336636 L18.9249811,33.4336636 L24,0 L-2.27373675e-13,0 L5.07501888,33.4336636 L9,33.4336636 L9,69 L15,69 L15,33.4336636 Z" id="path-5"></path>
        <mask id="mask-6" maskContentUnits="userSpaceOnUse" maskUnits="objectBoundingBox" x="0" y="0" width="24" height="69" fill="white">
            <use xlink:href="#path-5"></use>
        </mask>
        <path d="M15,33.4336636 L18.9249811,33.4336636 L24,0 L-2.27373675e-13,0 L5.07501888,33.4336636 L9,33.4336636 L9,69 L15,69 L15,33.4336636 Z" id="path-7"></path>
        <mask id="mask-8" maskContentUnits="userSpaceOnUse" maskUnits="objectBoundingBox" x="0" y="0" width="24" height="69" fill="white">
            <use xlink:href="#path-7"></use>
        </mask>
        <path d="M15,33.4336636 L18.9249811,33.4336636 L24,0 L-2.27373675e-13,0 L5.07501888,33.4336636 L9,33.4336636 L9,69 L15,69 L15,33.4336636 Z" id="path-9"></path>
        <mask id="mask-10" maskContentUnits="userSpaceOnUse" maskUnits="objectBoundingBox" x="0" y="0" width="24" height="69" fill="white">
            <use xlink:href="#path-9"></use>
        </mask>
        <path d="M15,33.4336636 L18.9249811,33.4336636 L24,0 L-2.27373675e-13,0 L5.07501888,33.4336636 L9,33.4336636 L9,69 L15,69 L15,33.4336636 Z" id="path-11"></path>
        <mask id="mask-12" maskContentUnits="userSpaceOnUse" maskUnits="objectBoundingBox" x="0" y="0" width="24" height="69" fill="white">
            <use xlink:href="#path-11"></use>
        </mask>
        <path d="M15,33.4336636 L18.9249811,33.4336636 L24,0 L-2.27373675e-13,0 L5.07501888,33.4336636 L9,33.4336636 L9,69 L15,69 L15,33.4336636 Z" id="path-13"></path>
        <mask id="mask-14" maskContentUnits="userSpaceOnUse" maskUnits="objectBoundingBox" x="0" y="0" width="24" height="69" fill="white">
            <use xlink:href="#path-13"></use>
        </mask>
        <path d="M15,33.4336636 L18.9249811,33.4336636 L24,0 L-2.27373675e-13,0 L5.07501888,33.4336636 L9,33.4336636 L9,69 L15,69 L15,33.4336636 Z" id="path-15"></path>
        <mask id="mask-16" maskContentUnits="userSpaceOnUse" maskUnits="objectBoundingBox" x="0" y="0" width="24" height="69" fill="white">
            <use xlink:href="#path-15"></use>
        </mask>
        <path d="M15,33.4336636 L18.9249811,33.4336636 L24,0 L-2.27373675e-13,0 L5.07501888,33.4336636 L9,33.4336636 L9,69 L15,69 L15,33.4336636 Z" id="path-17"></path>
        <mask id="mask-18" maskContentUnits="userSpaceOnUse" maskUnits="objectBoundingBox" x="0" y="0" width="24" height="69" fill="white">
            <use xlink:href="#path-17"></use>
        </mask>
        <path d="M15,33.4336636 L18.9249811,33.4336636 L24,0 L-2.27373675e-13,0 L5.07501888,33.4336636 L9,33.4336636 L9,69 L15,69 L15,33.4336636 Z" id="path-19"></path>
        <mask id="mask-20" maskContentUnits="userSpaceOnUse" maskUnits="objectBoundingBox" x="0" y="0" width="24" height="69" fill="white">
            <use xlink:href="#path-19"></use>
        </mask>
        <path d="M15,33.4336636 L18.9249811,33.4336636 L24,0 L-2.27373675e-13,0 L5.07501888,33.4336636 L9,33.4336636 L9,69 L15,69 L15,33.4336636 Z" id="path-21"></path>
        <mask id="mask-22" maskContentUnits="userSpaceOnUse" maskUnits="objectBoundingBox" x="0" y="0" width="24" height="69" fill="white">
            <use xlink:href="#path-21"></use>
        </mask>
        <path d="M15,33.4336636 L18.9249811,33.4336636 L24,0 L-2.27373675e-13,0 L5.07501888,33.4336636 L9,33.4336636 L9,69 L15,69 L15,33.4336636 Z" id="path-23"></path>
        <mask id="mask-24" maskContentUnits="userSpaceOnUse" maskUnits="objectBoundingBox" x="0" y="0" width="24" height="69" fill="white">
            <use xlink:href="#path-23"></use>
        </mask>
        <path d="M15,33.4336636 L18.9249811,33.4336636 L24,0 L-2.27373675e-13,0 L5.07501888,33.4336636 L9,33.4336636 L9,69 L15,69 L15,33.4336636 Z" id="path-25"></path>
        <mask id="mask-26" maskContentUnits="userSpaceOnUse" maskUnits="objectBoundingBox" x="0" y="0" width="24" height="69" fill="white">
            <use xlink:href="#path-25"></use>
        </mask>
        <polygon id="path-27" points="62.2670665 56 158 125 92 125 136.675369 56"></polygon>
        <mask id="mask-28" maskContentUnits="userSpaceOnUse" maskUnits="objectBoundingBox" x="0" y="0" width="95.7329335" height="69" fill="white">
            <use xlink:href="#path-27"></use>
        </mask>
        <polygon id="path-29" points="80.4491257 37 122.041308 108 91.5863749 108 190.094176 37"></polygon>
        <mask id="mask-30" maskContentUnits="userSpaceOnUse" maskUnits="objectBoundingBox" x="0" y="0" width="109.64505" height="71" fill="white">
            <use xlink:href="#path-29"></use>
        </mask>
        <rect id="path-31" x="24" y="24" width="66" height="69"></rect>
        <mask id="mask-32" maskContentUnits="userSpaceOnUse" maskUnits="objectBoundingBox" x="0" y="0" width="66" height="69" fill="white">
            <use xlink:href="#path-31"></use>
        </mask>
        <rect id="path-33" x="0" y="0" width="64" height="71"></rect>
        <mask id="mask-34" maskContentUnits="userSpaceOnUse" maskUnits="objectBoundingBox" x="0" y="0" width="64" height="71" fill="white">
            <use xlink:href="#path-33"></use>
        </mask>
    </defs>
    <g id="Page-1" stroke="none" stroke-width="1" fill="none" fill-rule="evenodd">
        <g id="chip" transform="translate(0.000000, 1.000000)">
            <g id="Group-3" stroke="#979797" stroke-width="2">
                <use id="Rectangle-1" mask="url(#mask-2)" fill="#222222" xlink:href="#path-1"></use>
                <use id="Rectangle-1" mask="url(#mask-4)" fill="#232323" xlink:href="#path-3"></use>
            </g>
            <g id="pin" transform="translate(24.000000, 192.000000)" stroke="#979797" fill="#FFFFFF">
                <g id="Group-2" stroke-width="2">
                    <use id="Combined-Shape" mask="url(#mask-6)" xlink:href="#path-5"></use>
                </g>
                <g id="Group-2" transform="translate(49.818182, 0.000000)" stroke-width="2">
                    <use id="Combined-Shape" mask="url(#mask-8)" xlink:href="#path-7"></use>
                </g>
                <g id="Group-2" transform="translate(99.636364, 0.000000)" stroke-width="2">
                    <use id="Combined-Shape" mask="url(#mask-10)" xlink:href="#path-9"></use>
                </g>
                <g id="Group-2" transform="translate(149.454545, 0.000000)" stroke-width="2">
                    <use id="Combined-Shape" mask="url(#mask-12)" xlink:href="#path-11"></use>
                </g>
                <g id="Group-2" transform="translate(199.272727, 0.000000)" stroke-width="2">
                    <use id="Combined-Shape" mask="url(#mask-14)" xlink:href="#path-13"></use>
                </g>
                <g id="Group-2" transform="translate(249.090909, 0.000000)" stroke-width="2">
                    <use id="Combined-Shape" mask="url(#mask-16)" xlink:href="#path-15"></use>
                </g>
                <g id="Group-2" transform="translate(298.909091, 0.000000)" stroke-width="2">
                    <use id="Combined-Shape" mask="url(#mask-18)" xlink:href="#path-17"></use>
                </g>
                <g id="Group-2" transform="translate(348.727273, 0.000000)" stroke-width="2">
                    <use id="Combined-Shape" mask="url(#mask-20)" xlink:href="#path-19"></use>
                </g>
                <g id="Group-2" transform="translate(398.545455, 0.000000)" stroke-width="2">
                    <use id="Combined-Shape" mask="url(#mask-22)" xlink:href="#path-21"></use>
                </g>
                <g id="Group-2" transform="translate(448.363636, 0.000000)" stroke-width="2">
                    <use id="Combined-Shape" mask="url(#mask-24)" xlink:href="#path-23"></use>
                </g>
                <g id="Group-2" transform="translate(498.181818, 0.000000)" stroke-width="2">
                    <use id="Combined-Shape" mask="url(#mask-26)" xlink:href="#path-25"></use>
                </g>
                <g id="Group-2" transform="translate(548.000000, 0.000000)" stroke-width="0.7">
                    <path d="M15,33.4336636 L18.9249811,33.4336636 L24,0 L-2.27373675e-13,0 L5.07501888,33.4336636 L9,33.4336636 L9,69 L15,69 L15,33.4336636 Z" id="Combined-Shape"></path>
                </g>
            </g>
            <div class="rotating">
            <path d="M278.115032,83.584 C274.664519,83.584 272.135226,82.5600102 270.53497,80.512 C268.94522,78.4639898 268.281543,75.6266848 268.538187,72 L276.659734,70.848 C276.627209,72.1280064 276.901743,73.1519962 277.484037,73.92 C278.0697,74.9013382 278.964325,75.2853344 280.165984,75.072 C281.560118,74.9013325 282.446425,74.0693408 282.824872,72.576 C283.158433,71.3386605 282.682364,70.4000032 281.398864,69.76 L278.091787,68.544 C276.936227,68.1173312 275.888543,67.4346714 274.949706,66.496 C272.567675,63.9786541 271.861545,60.9280179 272.81398,57.344 C273.496864,54.549319 274.96466,52.224009 277.199606,50.432 C279.447906,48.5119904 281.862581,47.552 284.451576,47.552 C286.499587,47.552 288.316629,48.2346598 289.907778,49.6 C291.389153,50.9653402 292.497718,52.6293235 293.232799,54.592 L285.734185,58.752 C285.161491,56.8319904 284.138875,55.9573325 282.662507,56.128 C281.505895,56.2560006 280.80175,56.9173274 280.550139,58.112 C280.274174,59.2213389 280.726992,59.9893312 281.909975,60.416 L285.064874,61.632 C286.364375,62.1013357 287.416412,62.7626624 288.221306,63.616 C290.833205,66.2613466 291.679002,69.5039808 290.739111,73.344 C290.083721,76.3946822 288.548421,78.8906573 286.136994,80.768 C283.673998,82.6453427 280.997226,83.584 278.115032,83.584 Z M306.671369,84.608 C301.549421,84.608 297.51894,82.7733517 294.604804,79.104 C291.757212,75.4773152 290.785408,70.9546938 291.662957,65.536 C292.517042,60.2453069 294.918683,55.7653517 298.843533,52.096 C302.778239,48.3839814 307.124452,46.528 311.909221,46.528 C316.732577,46.528 320.576467,48.3626483 323.465655,52.032 C326.3878,55.7013517 327.560033,60.20264 326.956163,65.536 C326.345519,70.9120269 324.103919,75.4346483 320.206248,79.104 C316.273133,82.7733517 311.752667,84.608 306.671369,84.608 Z M328.995661,47.616 L336.763297,47.616 L333.943209,75.2 L344.539107,75.2 L343.7823,83.712 L324.89546,83.776 L328.995661,47.616 Z M348.548801,47.616 L356.25847,47.616 L353.540731,83.776 L345.440114,83.776 L348.548801,47.616 Z M366.411118,83.776 L355.752412,83.776 L358.363412,47.616 L368.504042,47.68 C373.023745,47.7226669 376.828102,49.4719827 379.939963,52.928 C383.004524,56.3840173 384.459667,60.6506413 384.282341,65.728 C384.104489,70.8053587 382.308561,75.0933158 378.871229,78.592 C375.363738,82.0480173 371.202483,83.776 366.411118,83.776 Z M414.199057,83.584 C410.748543,83.584 408.031277,82.5600102 406.05541,80.512 C404.090508,78.4639898 402.907852,75.6266848 402.50241,72 L410.413949,70.848 C410.614776,72.1280064 411.076119,73.1519962 411.798596,73.92 C412.563475,74.9013382 413.528257,75.2853344 414.690938,75.072 C416.053892,74.9013325 416.788251,74.0693408 416.894154,72.576 C417.002078,71.3386605 416.354949,70.4000032 414.954871,69.76 L411.42642,68.544 C410.193224,68.1173312 409.021363,67.4346714 407.911864,66.496 C405.072624,63.9786541 403.813354,60.9280179 404.117235,57.344 C404.295374,54.549319 405.343847,52.224009 407.256043,50.432 C409.158928,48.5119904 411.401049,47.552 413.990044,47.552 C416.038055,47.552 417.977792,48.2346598 419.814486,49.6 C421.54161,50.9653402 422.949953,52.6293235 424.039011,54.592 L417.29206,58.752 C416.372208,56.8319904 415.191578,55.9573325 413.746036,56.128 C412.612546,56.2560006 412.027888,56.9173274 411.992251,58.112 C411.916972,59.2213389 412.508803,59.9893312 413.769045,60.416 L417.144238,61.632 C418.52881,62.1013357 419.700756,62.7626624 420.660446,63.616 C423.752715,66.2613466 425.188388,69.5039808 424.948527,73.344 C424.85042,76.3946822 423.771828,78.8906573 421.70436,80.768 C419.585709,82.6453427 417.081251,83.584 414.199057,83.584 Z M439.43467,83.776 L431.334054,83.776 L430.539303,56.128 L424.732594,56.128 L424.558599,47.616 L444.035656,47.616 L444.440213,56.128 L438.340236,56.128 L439.43467,83.776 Z M467.000676,76.16 L457.234915,76.16 L454.375892,83.776 L445.361672,83.776 L459.865561,47.424 L480.139505,83.776 L471.125286,83.776 L467.000676,76.16 Z M494.349844,83.776 L486.249228,83.776 L483.422881,56.128 L477.616172,56.128 L476.823486,47.616 L496.300544,47.616 L497.323791,56.128 L491.223814,56.128 L494.349844,83.776 Z M496.368946,47.552 L515.148727,47.552 L516.40455,56.128 L505.201707,56.128 L505.917602,61.568 L514.308954,61.568 L515.541358,70.144 L507.051002,70.144 L507.730465,75.264 L519.230422,75.264 L520.497933,83.776 L500.764101,83.776 L496.368946,47.552 Z" id="solid-state" fill="#E1E1E1"></path>
            </div>
            <path d="M281.965947,117.584 C278.35553,117.584 275.690619,116.56001 273.979216,114.512 C272.278572,112.46399 271.53262,109.626685 271.735555,106 L280.216292,104.848 C280.205054,106.128006 280.510659,107.151996 281.133815,107.92 C281.764255,108.901338 282.707425,109.285334 283.961351,109.072 C285.417501,108.901332 286.330504,108.069341 286.700339,106.576 C287.02773,105.33866 286.512869,104.400003 285.157991,103.76 L281.674422,102.544 C280.457093,102.117331 279.348094,101.434671 278.348422,100.496 C275.809311,97.9786541 275.015057,94.9280179 275.948014,91.344 C276.613044,88.549319 278.108796,86.224009 280.417934,84.432 C282.739089,82.5119904 285.251807,81.552 287.96417,81.552 C290.109771,81.552 292.025274,82.2346598 293.715873,83.6 C295.29132,84.9653402 296.481257,86.6293235 297.285012,88.592 L289.503811,92.752 C288.870441,90.8319904 287.784098,89.9573325 286.240845,90.128 C285.031748,90.2560006 284.305964,90.9173274 284.063576,92.112 C283.794196,93.2213389 284.28197,93.9893312 285.528301,94.416 L288.85333,95.632 C290.222276,96.1013357 291.335404,96.7626624 292.193048,97.616 C294.973636,100.261347 295.915175,103.503981 294.997734,107.344 C294.364624,110.394682 292.801197,112.890657 290.310435,114.768 C287.766035,116.645343 284.981707,117.584 281.965947,117.584 Z M311.862797,118.608 C306.503673,118.608 302.255222,116.773352 299.142915,113.104 C296.100244,109.477315 295.004833,104.954694 295.829823,99.536 C296.632808,94.2453069 299.070914,89.7653517 303.119186,86.096 C307.178143,82.3839814 311.700341,80.528 316.713294,80.528 C321.766673,80.528 325.823577,82.3626483 328.909376,86.032 C332.028934,89.7013517 333.328477,94.20264 332.781379,99.536 C332.228181,104.912027 329.954576,109.434648 325.934836,113.104 C321.879055,116.773352 317.179389,118.608 311.862797,118.608 Z M337.032607,113.168 C333.808423,109.541315 332.489615,104.997361 333.049651,99.536 C333.594844,94.20264 335.813623,89.7013517 339.680729,86.032 C343.63405,82.3626483 348.083227,80.528 353.055752,80.528 C359.160234,80.528 364.072274,83.4719706 367.839983,89.36 L360.881585,94.416 C358.653729,90.874649 355.830747,89.104 352.395387,89.104 C349.532587,89.104 347.055635,90.1066566 344.956532,92.112 C342.846846,94.1173434 341.653988,96.5919853 341.385524,99.536 C341.112699,102.522682 341.866053,105.018657 343.653652,107.024 C345.451516,109.029343 347.826171,110.032 350.769978,110.032 C354.554873,110.032 357.838292,108.154685 360.601142,104.4 L367.214444,109.264 C362.541794,115.493364 356.818375,118.608 350.098203,118.608 C344.654014,118.608 340.290427,116.794685 337.032607,113.168 Z M370.420505,81.616 L378.497529,81.616 L376.949622,117.776 L368.473663,117.776 L370.420505,81.616 Z M401.96698,110.16 L391.746084,110.16 L388.058385,117.776 L378.626491,117.776 L397.103044,81.424 L415.015758,117.776 L405.583864,117.776 L401.96698,110.16 Z M414.791002,81.616 L422.928756,81.616 L423.420685,109.2 L434.510771,109.2 L434.789565,117.712 L415.035673,117.776 L414.791002,81.616 Z M459.827407,113.168 C456.016028,109.541315 453.963269,104.997361 453.643759,99.536 C453.332746,94.20264 454.830993,89.7013517 458.112157,86.032 C461.48081,82.3626483 465.638136,80.528 470.610661,80.528 C476.715144,80.528 482.095658,83.4719706 486.802791,89.36 L480.653687,94.416 C477.858726,90.874649 474.752642,89.104 471.317282,89.104 C468.454482,89.104 466.137805,90.1066566 464.359541,92.112 C462.571076,94.1173434 461.775137,96.5919853 461.979631,99.536 C462.187458,102.522682 463.343142,105.018657 465.454412,107.024 C467.576328,109.029343 470.11315,110.032 473.056957,110.032 C476.841852,110.032 479.821718,108.154685 481.978454,104.4 L489.377201,109.264 C485.713747,115.493364 480.496297,118.608 473.776125,118.608 C468.331936,118.608 463.673666,116.794685 459.827407,113.168 Z M486.508755,81.616 L494.64651,81.616 L497.833741,109.2 L508.923826,109.2 L510.043211,117.712 L490.295654,117.776 L486.508755,81.616 Z M523.349435,118.352 C520.79833,118.352 518.385122,117.680007 516.115372,116.336 C513.853126,114.991993 512.019591,113.168012 510.614413,110.864 C509.488099,109.029324 508.674734,106.192019 508.171738,102.352 L505.47534,81.616 L513.613094,81.616 L516.548022,102.416 C516.923894,105.061347 517.298051,106.661331 517.670405,107.216 C518.670389,108.922675 520.138657,109.776 522.072503,109.776 C523.754109,109.776 524.922517,109.029341 525.575297,107.536 C525.904972,106.682662 525.888568,105.082678 525.527194,102.736 L522.297414,81.616 L530.374438,81.616 L533.836193,102.736 C534.491443,106.70402 534.386693,109.754656 533.515953,111.888 C531.592358,116.197355 528.196535,118.352 523.349435,118.352 Z M547.488819,117.712 L543.740398,117.776 L536.411561,117.776 L530.454146,81.616 L540.728752,81.68 C543.644035,81.68 546.286162,82.7253229 548.66399,84.816 C551.102426,86.949344 552.612486,89.5093184 553.185814,92.496 C553.58775,94.5866771 553.333252,96.698656 552.416669,98.832 C554.67564,101.093345 556.074764,103.58932 556.606029,106.32 C557.238019,109.562683 556.69143,112.271989 554.956469,114.448 C553.201605,116.581344 550.709592,117.669333 547.488819,117.712 Z" id="social-club" fill="#E1E1E1"></path>
            <use id="Rectangle-2" stroke="#979797" mask="url(#mask-28)" stroke-width="2" xlink:href="#path-27"></use>
            <use id="Rectangle-3" stroke="#979797" mask="url(#mask-30)" stroke-width="2" xlink:href="#path-29"></use>
            <g id="cube" transform="translate(68.000000, 37.000000)" stroke="#979797">
                <use id="Rectangle-2" mask="url(#mask-32)" stroke-width="2" xlink:href="#path-31"></use>
                <use id="Rectangle-3" mask="url(#mask-34)" stroke-width="2" xlink:href="#path-33"></use>
                <path d="M0.5,0.5 L24.047823,24.047823" id="Line" stroke-linecap="square"></path>
                <path d="M64.5,69.5 L88.047823,93.047823" id="Line" stroke-linecap="square"></path>
                <path d="M64.5,0.5 L88.047823,24.047823" id="Line" stroke-linecap="square"></path>
                <path d="M0.5,69.5 L24.047823,93.047823" id="Line" stroke-linecap="square"></path>
            </g>
            <rect id="Rectangle-4" fill-opacity="0.189999998" fill="#000000" style="mix-blend-mode: darken;" x="24" y="192" width="572" height="9"></rect>
            <path d="M89,142.358 L90.5693258,142.358 L92.214056,146.656 L95.2370641,142.358 L96.6722595,142.358 L92.3623242,148.28 L91.3683242,148.28 L89,142.358 Z M102.141404,142.428 L100.665206,142.428 L100.78018,141.462 L103.743146,141 L103.034699,148.28 L101.508699,148.28 L102.141404,142.428 Z M110.436709,141.343 C110.667305,141.151666 111.083465,141.056 111.685676,141.056 L115.205934,141.056 C115.808145,141.056 116.219544,141.151666 116.440619,141.343 C116.662327,141.534334 116.773401,141.909997 116.773373,142.47 L116.773349,142.932 C116.773329,143.324002 116.705622,143.622666 116.569922,143.828 C116.461081,143.986667 116.225018,144.177999 115.861026,144.402 L111.640889,146.978 L115.802174,146.978 L115.809611,145.914 L117.11825,146.292 L117.119643,146.866 C117.121002,147.426003 117.005643,147.801666 116.773089,147.993 C116.539903,148.184334 116.105744,148.28 115.471074,148.28 L109.395074,148.28 L109.429478,147.622 C109.444118,147.341999 109.501627,147.127334 109.601859,146.978 C109.73243,146.772666 109.997246,146.548668 110.395567,146.306 L115.355931,143.226 L115.365741,142.288 L111.424347,142.288 L111.365583,143.772 L110.001251,143.408 L110.047877,142.47 C110.075714,141.909997 110.205481,141.534334 110.436709,141.343 Z M122.381169,146.628 L122.426667,147.762 C122.436403,148.004668 122.407333,148.151666 122.339417,148.203 C122.271451,148.254334 122.111451,148.28 121.859449,148.28 L120.613449,148.28 C120.389448,148.28 120.273174,148.107335 120.264625,147.762 L120.236549,146.628 C120.23054,146.385332 120.261395,146.238334 120.329074,146.187 C120.396703,146.135666 120.554561,146.11 120.80269,146.11 L122.029548,146.11 C122.250108,146.11 122.367314,146.282665 122.381169,146.628 Z M128.551084,142.428 L127.074886,142.428 L127.00144,141.462 L129.874292,141 L130.585824,148.28 L129.059824,148.28 L128.551084,142.428 Z M138.414966,145.144 C138.068172,145.144 137.875659,145.227999 137.837303,145.396 C137.814911,145.489334 137.817155,145.624666 137.844072,145.802 L137.924823,146.334 C137.971573,146.642002 138.064568,146.828666 138.2039,146.894 C138.304933,146.95 138.471066,146.978 138.70225,146.978 L142.364181,146.978 C142.660096,146.978 142.83866,146.931334 142.8998,146.838 C142.960834,146.744666 142.968542,146.576668 142.923001,146.334 L142.823162,145.802 C142.777622,145.559332 142.706802,145.389 142.610783,145.291 C142.514874,145.193 142.320946,145.144 142.028908,145.144 L138.414966,145.144 Z M138.128466,142.288 C137.788843,142.288 137.596204,142.371999 137.55041,142.54 C137.528875,142.633334 137.531644,142.768666 137.558754,142.946 L137.614401,143.31 C137.658634,143.599335 137.740673,143.781333 137.86061,143.856 C137.980666,143.930667 138.158365,143.968 138.393625,143.968 L141.664626,143.968 C142.008467,143.968 142.196454,143.884001 142.228476,143.716 C142.247202,143.622666 142.240003,143.487334 142.206917,143.31 L142.139003,142.946 C142.093727,142.703332 142.023895,142.533 141.929587,142.435 C141.835389,142.337 141.645335,142.288 141.359337,142.288 L138.128466,142.288 Z M142.958167,141.343 C143.217649,141.534334 143.402891,141.909997 143.513424,142.47 L143.6433,143.128 C143.7262,143.548002 143.68846,143.860666 143.529631,144.066 C143.370205,144.271334 143.055057,144.425333 142.584076,144.528 C143.605309,144.640001 144.200853,145.120662 144.369505,145.97 L144.519623,146.726 C144.632676,147.295336 144.589213,147.696666 144.38862,147.93 C144.187209,148.163335 143.745536,148.28 143.064199,148.28 L138.444199,148.28 C137.762863,148.28 137.278578,148.158668 136.99198,147.916 C136.728805,147.701332 136.556694,147.30467 136.475112,146.726 L136.368529,145.97 C136.248786,145.120662 136.681121,144.640001 137.664324,144.528 C137.158482,144.425333 136.788776,144.271334 136.555105,144.066 C136.322044,143.860666 136.175909,143.548002 136.116237,143.128 L136.022753,142.47 C135.943192,141.909997 136.000914,141.534334 136.195448,141.343 C136.389349,141.151666 136.787162,141.056 137.389373,141.056 L141.666819,141.056 C142.269029,141.056 142.699316,141.151666 142.958167,141.343 Z" id="v12.18" fill="#909090"></path>
        </g>
    </g>
</svg>