
<svg width="100%" height="auto" viewBox="0 -1 620 262" version="1.1" xmlns="http://www.w3.org/2000/svg" xmlns:xlink="http://www.w3.org/1999/xlink">
    <defs>
        <path d="M618.738004,166.000792 C618.984549,165.072979 619.055845,164.058631 618.919648,162.99591 L590.180506,8.00408951 C589.109581,3.59127976 585.105985,-3.15544362e-30 581.255151,-2.84217094e-14 L37.7448491,-2.84217094e-14 C33.8902041,-2.84217094e-14 29.8923065,3.58355294 28.819494,8.00408951 L0.0803524297,162.99591 C-0.154431333,164.827845 0.229912782,166.518195 1.06665057,167.868799 L4.54747351e-13,167.872025 L8.76327705,209.127975 L610.236723,211 L619,166 L618.738004,166.000792 L618.738004,166.000792 Z" id="path-1"></path>
        <mask id="mask-2" maskContentUnits="userSpaceOnUse" maskUnits="objectBoundingBox" x="0" y="0" width="619" height="211" fill="white">
            <use xlink:href="#path-1"></use>
        </mask>
        <path d="M39,225.433664 L42.9249811,225.433664 L48,192 L24,192 L29.0750189,225.433664 L33,225.433664 L33,261 L39,261 L39,225.433664 L39,225.433664 L39,225.433664 L39,225.433664 L39,225.433664 Z M88.8181818,225.433664 L92.7431629,225.433664 L97.8181818,192 L73.8181818,192 L78.8932007,225.433664 L82.8181818,225.433664 L82.8181818,261 L88.8181818,261 L88.8181818,225.433664 L88.8181818,225.433664 L88.8181818,225.433664 L88.8181818,225.433664 Z M138.636364,225.433664 L142.561345,225.433664 L147.636364,192 L123.636364,192 L128.711383,225.433664 L132.636364,225.433664 L132.636364,261 L138.636364,261 L138.636364,225.433664 L138.636364,225.433664 Z M587,225.433664 L590.924981,225.433664 L596,192 L572,192 L577.075019,225.433664 L581,225.433664 L581,261 L587,261 L587,225.433664 L587,225.433664 L587,225.433664 Z M537.181818,225.433664 L541.106799,225.433664 L546.181818,192 L522.181818,192 L527.256837,225.433664 L531.181818,225.433664 L531.181818,261 L537.181818,261 L537.181818,225.433664 L537.181818,225.433664 L537.181818,225.433664 Z M487.363636,225.433664 L491.288617,225.433664 L496.363636,192 L472.363636,192 L477.438655,225.433664 L481.363636,225.433664 L481.363636,261 L487.363636,261 L487.363636,225.433664 L487.363636,225.433664 L487.363636,225.433664 Z M437.545455,225.433664 L441.470436,225.433664 L446.545455,192 L422.545455,192 L427.620473,225.433664 L431.545455,225.433664 L431.545455,261 L437.545455,261 L437.545455,225.433664 L437.545455,225.433664 L437.545455,225.433664 Z M387.727273,225.433664 L391.652254,225.433664 L396.727273,192 L372.727273,192 L377.802292,225.433664 L381.727273,225.433664 L381.727273,261 L387.727273,261 L387.727273,225.433664 L387.727273,225.433664 L387.727273,225.433664 Z M337.909091,225.433664 L341.834072,225.433664 L346.909091,192 L322.909091,192 L327.98411,225.433664 L331.909091,225.433664 L331.909091,261 L337.909091,261 L337.909091,225.433664 L337.909091,225.433664 L337.909091,225.433664 Z M288.090909,225.433664 L292.01589,225.433664 L297.090909,192 L273.090909,192 L278.165928,225.433664 L282.090909,225.433664 L282.090909,261 L288.090909,261 L288.090909,225.433664 L288.090909,225.433664 Z M238.272727,225.433664 L242.197708,225.433664 L247.272727,192 L223.272727,192 L228.347746,225.433664 L232.272727,225.433664 L232.272727,261 L238.272727,261 L238.272727,225.433664 L238.272727,225.433664 Z M188.454545,225.433664 L192.379527,225.433664 L197.454545,192 L173.454545,192 L178.529564,225.433664 L182.454545,225.433664 L182.454545,261 L188.454545,261 L188.454545,225.433664 L188.454545,225.433664 Z" id="path-3"></path>
        <mask id="mask-4" maskContentUnits="userSpaceOnUse" maskUnits="objectBoundingBox" x="0" y="0" width="572" height="69" fill="white">
            <use xlink:href="#path-3"></use>
        </mask>
    </defs>
    <g id="chip" stroke="none" stroke-width="1" fill="none" fill-rule="evenodd">
        <use id="Combined-Shape" stroke="#979797" mask="url(#mask-2)" stroke-width="2" fill="#222222" xlink:href="#path-1"></use>
        <use id="Combined-Shape" stroke="#979797" mask="url(#mask-4)" stroke-width="2" fill="#FFFFFF" xlink:href="#path-3"></use>
        <path d="M278.115032,83.584 C274.664519,83.584 272.135226,82.5600102 270.53497,80.512 C268.94522,78.4639898 268.281543,75.6266848 268.538187,72 L276.659734,70.848 C276.627209,72.1280064 276.901743,73.1519962 277.484037,73.92 C278.0697,74.9013382 278.964325,75.2853344 280.165984,75.072 C281.560118,74.9013325 282.446425,74.0693408 282.824872,72.576 C283.158433,71.3386605 282.682364,70.4000032 281.398864,69.76 L278.091787,68.544 C276.936227,68.1173312 275.888543,67.4346714 274.949706,66.496 C272.567675,63.9786541 271.861545,60.9280179 272.81398,57.344 C273.496864,54.549319 274.96466,52.224009 277.199606,50.432 C279.447906,48.5119904 281.862581,47.552 284.451576,47.552 C286.499587,47.552 288.316629,48.2346598 289.907778,49.6 C291.389153,50.9653402 292.497718,52.6293235 293.232799,54.592 L285.734185,58.752 C285.161491,56.8319904 284.138875,55.9573325 282.662507,56.128 C281.505895,56.2560006 280.80175,56.9173274 280.550139,58.112 C280.274174,59.2213389 280.726992,59.9893312 281.909975,60.416 L285.064874,61.632 C286.364375,62.1013357 287.416412,62.7626624 288.221306,63.616 C290.833205,66.2613466 291.679002,69.5039808 290.739111,73.344 C290.083721,76.3946822 288.548421,78.8906573 286.136994,80.768 C283.673998,82.6453427 280.997226,83.584 278.115032,83.584 L278.115032,83.584 Z M306.671369,84.608 C301.549421,84.608 297.51894,82.7733517 294.604804,79.104 C291.757212,75.4773152 290.785408,70.9546938 291.662957,65.536 C292.517042,60.2453069 294.918683,55.7653517 298.843533,52.096 C302.778239,48.3839814 307.124452,46.528 311.909221,46.528 C316.732577,46.528 320.576467,48.3626483 323.465655,52.032 C326.3878,55.7013517 327.560033,60.20264 326.956163,65.536 C326.345519,70.9120269 324.103919,75.4346483 320.206248,79.104 C316.273133,82.7733517 311.752667,84.608 306.671369,84.608 L306.671369,84.608 Z M328.995661,47.616 L336.763297,47.616 L333.943209,75.2 L344.539107,75.2 L343.7823,83.712 L324.89546,83.776 L328.995661,47.616 L328.995661,47.616 Z M348.548801,47.616 L356.25847,47.616 L353.540731,83.776 L345.440114,83.776 L348.548801,47.616 L348.548801,47.616 Z M366.411118,83.776 L355.752412,83.776 L358.363412,47.616 L368.504042,47.68 C373.023745,47.7226669 376.828102,49.4719827 379.939963,52.928 C383.004524,56.3840173 384.459667,60.6506413 384.282341,65.728 C384.104489,70.8053587 382.308561,75.0933158 378.871229,78.592 C375.363738,82.0480173 371.202483,83.776 366.411118,83.776 L366.411118,83.776 Z M414.199057,83.584 C410.748543,83.584 408.031277,82.5600102 406.05541,80.512 C404.090508,78.4639898 402.907852,75.6266848 402.50241,72 L410.413949,70.848 C410.614776,72.1280064 411.076119,73.1519962 411.798596,73.92 C412.563475,74.9013382 413.528257,75.2853344 414.690938,75.072 C416.053892,74.9013325 416.788251,74.0693408 416.894154,72.576 C417.002078,71.3386605 416.354949,70.4000032 414.954871,69.76 L411.42642,68.544 C410.193224,68.1173312 409.021363,67.4346714 407.911864,66.496 C405.072624,63.9786541 403.813354,60.9280179 404.117235,57.344 C404.295374,54.549319 405.343847,52.224009 407.256043,50.432 C409.158928,48.5119904 411.401049,47.552 413.990044,47.552 C416.038055,47.552 417.977792,48.2346598 419.814486,49.6 C421.54161,50.9653402 422.949953,52.6293235 424.039011,54.592 L417.29206,58.752 C416.372208,56.8319904 415.191578,55.9573325 413.746036,56.128 C412.612546,56.2560006 412.027888,56.9173274 411.992251,58.112 C411.916972,59.2213389 412.508803,59.9893312 413.769045,60.416 L417.144238,61.632 C418.52881,62.1013357 419.700756,62.7626624 420.660446,63.616 C423.752715,66.2613466 425.188388,69.5039808 424.948527,73.344 C424.85042,76.3946822 423.771828,78.8906573 421.70436,80.768 C419.585709,82.6453427 417.081251,83.584 414.199057,83.584 L414.199057,83.584 Z M439.43467,83.776 L431.334054,83.776 L430.539303,56.128 L424.732594,56.128 L424.558599,47.616 L444.035656,47.616 L444.440213,56.128 L438.340236,56.128 L439.43467,83.776 L439.43467,83.776 Z M467.000676,76.16 L457.234915,76.16 L454.375892,83.776 L445.361672,83.776 L459.865561,47.424 L480.139505,83.776 L471.125286,83.776 L467.000676,76.16 L467.000676,76.16 Z M494.349844,83.776 L486.249228,83.776 L483.422881,56.128 L477.616172,56.128 L476.823486,47.616 L496.300544,47.616 L497.323791,56.128 L491.223814,56.128 L494.349844,83.776 L494.349844,83.776 Z M496.368946,47.552 L515.148727,47.552 L516.40455,56.128 L505.201707,56.128 L505.917602,61.568 L514.308954,61.568 L515.541358,70.144 L507.051002,70.144 L507.730465,75.264 L519.230422,75.264 L520.497933,83.776 L500.764101,83.776 L496.368946,47.552 L496.368946,47.552 Z" id="solid-state" fill="#E1E1E1"></path>
        <path d="M281.965947,117.584 C278.35553,117.584 275.690619,116.56001 273.979216,114.512 C272.278572,112.46399 271.53262,109.626685 271.735555,106 L280.216292,104.848 C280.205054,106.128006 280.510659,107.151996 281.133815,107.92 C281.764255,108.901338 282.707425,109.285334 283.961351,109.072 C285.417501,108.901332 286.330504,108.069341 286.700339,106.576 C287.02773,105.33866 286.512869,104.400003 285.157991,103.76 L281.674422,102.544 C280.457093,102.117331 279.348094,101.434671 278.348422,100.496 C275.809311,97.9786541 275.015057,94.9280179 275.948014,91.344 C276.613044,88.549319 278.108796,86.224009 280.417934,84.432 C282.739089,82.5119904 285.251807,81.552 287.96417,81.552 C290.109771,81.552 292.025274,82.2346598 293.715873,83.6 C295.29132,84.9653402 296.481257,86.6293235 297.285012,88.592 L289.503811,92.752 C288.870441,90.8319904 287.784098,89.9573325 286.240845,90.128 C285.031748,90.2560006 284.305964,90.9173274 284.063576,92.112 C283.794196,93.2213389 284.28197,93.9893312 285.528301,94.416 L288.85333,95.632 C290.222276,96.1013357 291.335404,96.7626624 292.193048,97.616 C294.973636,100.261347 295.915175,103.503981 294.997734,107.344 C294.364624,110.394682 292.801197,112.890657 290.310435,114.768 C287.766035,116.645343 284.981707,117.584 281.965947,117.584 Z M311.862797,118.608 C306.503673,118.608 302.255222,116.773352 299.142915,113.104 C296.100244,109.477315 295.004833,104.954694 295.829823,99.536 C296.632808,94.2453069 299.070914,89.7653517 303.119186,86.096 C307.178143,82.3839814 311.700341,80.528 316.713294,80.528 C321.766673,80.528 325.823577,82.3626483 328.909376,86.032 C332.028934,89.7013517 333.328477,94.20264 332.781379,99.536 C332.228181,104.912027 329.954576,109.434648 325.934836,113.104 C321.879055,116.773352 317.179389,118.608 311.862797,118.608 Z M337.032607,113.168 C333.808423,109.541315 332.489615,104.997361 333.049651,99.536 C333.594844,94.20264 335.813623,89.7013517 339.680729,86.032 C343.63405,82.3626483 348.083227,80.528 353.055752,80.528 C359.160234,80.528 364.072274,83.4719706 367.839983,89.36 L360.881585,94.416 C358.653729,90.874649 355.830747,89.104 352.395387,89.104 C349.532587,89.104 347.055635,90.1066566 344.956532,92.112 C342.846846,94.1173434 341.653988,96.5919853 341.385524,99.536 C341.112699,102.522682 341.866053,105.018657 343.653652,107.024 C345.451516,109.029343 347.826171,110.032 350.769978,110.032 C354.554873,110.032 357.838292,108.154685 360.601142,104.4 L367.214444,109.264 C362.541794,115.493364 356.818375,118.608 350.098203,118.608 C344.654014,118.608 340.290427,116.794685 337.032607,113.168 Z M370.420505,81.616 L378.497529,81.616 L376.949622,117.776 L368.473663,117.776 L370.420505,81.616 Z M401.96698,110.16 L391.746084,110.16 L388.058385,117.776 L378.626491,117.776 L397.103044,81.424 L415.015758,117.776 L405.583864,117.776 L401.96698,110.16 Z M414.791002,81.616 L422.928756,81.616 L423.420685,109.2 L434.510771,109.2 L434.789565,117.712 L415.035673,117.776 L414.791002,81.616 Z M459.827407,113.168 C456.016028,109.541315 453.963269,104.997361 453.643759,99.536 C453.332746,94.20264 454.830993,89.7013517 458.112157,86.032 C461.48081,82.3626483 465.638136,80.528 470.610661,80.528 C476.715144,80.528 482.095658,83.4719706 486.802791,89.36 L480.653687,94.416 C477.858726,90.874649 474.752642,89.104 471.317282,89.104 C468.454482,89.104 466.137805,90.1066566 464.359541,92.112 C462.571076,94.1173434 461.775137,96.5919853 461.979631,99.536 C462.187458,102.522682 463.343142,105.018657 465.454412,107.024 C467.576328,109.029343 470.11315,110.032 473.056957,110.032 C476.841852,110.032 479.821718,108.154685 481.978454,104.4 L489.377201,109.264 C485.713747,115.493364 480.496297,118.608 473.776125,118.608 C468.331936,118.608 463.673666,116.794685 459.827407,113.168 Z M486.508755,81.616 L494.64651,81.616 L497.833741,109.2 L508.923826,109.2 L510.043211,117.712 L490.295654,117.776 L486.508755,81.616 Z M523.349435,118.352 C520.79833,118.352 518.385122,117.680007 516.115372,116.336 C513.853126,114.991993 512.019591,113.168012 510.614413,110.864 C509.488099,109.029324 508.674734,106.192019 508.171738,102.352 L505.47534,81.616 L513.613094,81.616 L516.548022,102.416 C516.923894,105.061347 517.298051,106.661331 517.670405,107.216 C518.670389,108.922675 520.138657,109.776 522.072503,109.776 C523.754109,109.776 524.922517,109.029341 525.575297,107.536 C525.904972,106.682662 525.888568,105.082678 525.527194,102.736 L522.297414,81.616 L530.374438,81.616 L533.836193,102.736 C534.491443,106.70402 534.386693,109.754656 533.515953,111.888 C531.592358,116.197355 528.196535,118.352 523.349435,118.352 Z M547.488819,117.712 L543.740398,117.776 L536.411561,117.776 L530.454146,81.616 L540.728752,81.68 C543.644035,81.68 546.286162,82.7253229 548.66399,84.816 C551.102426,86.949344 552.612486,89.5093184 553.185814,92.496 C553.58775,94.5866771 553.333252,96.698656 552.416669,98.832 C554.67564,101.093345 556.074764,103.58932 556.606029,106.32 C557.238019,109.562683 556.69143,112.271989 554.956469,114.448 C553.201605,116.581344 550.709592,117.669333 547.488819,117.712 Z" id="social-club" fill="#E1E1E1"></path>
        <rect id="Rectangle-4" fill-opacity="0.189999998" fill="#000000" style="mix-blend-mode: darken;" x="24" y="192" width="572" height="9"></rect>
    </g>
</svg>