<?xml version="1.0" encoding="UTF-8"?>
<svg width="622px" height="263px" viewBox="0 0 622 263" version="1.1" xmlns="http://www.w3.org/2000/svg" xmlns:xlink="http://www.w3.org/1999/xlink">
    <defs>
        <path d="M618.919648,162.99591 L590.180506,8.00408951 C589.109581,3.59127976 585.105985,0 581.255151,-2.84217094e-14 L37.7448491,-2.84217094e-14 C33.8902041,-2.84217094e-14 29.8923065,3.58355294 28.819494,8.00408951 L0.0803524297,162.99591 C-0.154431333,164.827845 0.270069299,166.798832 1.10680709,168.149436 L8.76327705,209.127975 L610.236723,211 L619,166 C618.984549,165.072979 619.055845,164.058631 618.919648,162.99591 Z" id="path-1"></path>
        <path d="M15,33.433664 L18.9249811,33.433664 L24,0 L0,0 L5.0750189,33.433664 L9,33.433664 L9,69 L15,69 L15,33.433664 Z M64.8181818,33.433664 L68.7431629,33.433664 L73.8181818,0 L49.8181818,0 L54.8932007,33.433664 L58.8181818,33.433664 L58.8181818,69 L64.8181818,69 L64.8181818,33.433664 Z M114.636364,33.433664 L118.561345,33.433664 L123.636364,0 L99.636364,0 L104.711383,33.433664 L108.636364,33.433664 L108.636364,69 L114.636364,69 L114.636364,33.433664 Z M563,33.433664 L566.924981,33.433664 L572,0 L548,0 L553.075019,33.433664 L557,33.433664 L557,69 L563,69 L563,33.433664 Z M513.181818,33.433664 L517.106799,33.433664 L522.181818,0 L498.181818,0 L503.256837,33.433664 L507.181818,33.433664 L507.181818,69 L513.181818,69 L513.181818,33.433664 Z M463.363636,33.433664 L467.288617,33.433664 L472.363636,0 L448.363636,0 L453.438655,33.433664 L457.363636,33.433664 L457.363636,69 L463.363636,69 L463.363636,33.433664 Z M413.545455,33.433664 L417.470436,33.433664 L422.545455,0 L398.545455,0 L403.620473,33.433664 L407.545455,33.433664 L407.545455,69 L413.545455,69 L413.545455,33.433664 Z M363.727273,33.433664 L367.652254,33.433664 L372.727273,0 L348.727273,0 L353.802292,33.433664 L357.727273,33.433664 L357.727273,69 L363.727273,69 L363.727273,33.433664 Z M313.909091,33.433664 L317.834072,33.433664 L322.909091,0 L298.909091,0 L303.98411,33.433664 L307.909091,33.433664 L307.909091,69 L313.909091,69 L313.909091,33.433664 Z M264.090909,33.433664 L268.01589,33.433664 L273.090909,0 L249.090909,0 L254.165928,33.433664 L258.090909,33.433664 L258.090909,69 L264.090909,69 L264.090909,33.433664 Z M214.272727,33.433664 L218.197708,33.433664 L223.272727,0 L199.272727,0 L204.347746,33.433664 L208.272727,33.433664 L208.272727,69 L214.272727,69 L214.272727,33.433664 Z M164.454545,33.433664 L168.379527,33.433664 L173.454545,0 L149.454545,0 L154.529564,33.433664 L158.454545,33.433664 L158.454545,69 L164.454545,69 L164.454545,33.433664 Z" id="path-3"></path>
    </defs>
    <g id="Page-1" stroke="none" stroke-width="1" fill="none" fill-rule="evenodd">
        <g id="chip" transform="translate(1.000000, 1.000000)">
            <g id="Combined-Shape">
                <g id="path-1-Clipped">
                    <mask id="mask-2" fill="white">
                        <use xlink:href="#path-1"></use>
                    </mask>
                    <g id="path-1"></g>
                    <path d="M618.919648,162.99591 L590.180506,8.00408951 C589.109581,3.59127976 585.105985,0 581.255151,-2.84217094e-14 L37.7448491,-2.84217094e-14 C33.8902041,-2.84217094e-14 29.8923065,3.58355294 28.819494,8.00408951 L0.0803524297,162.99591 C-0.154431333,164.827845 0.229912782,166.518195 1.06665057,167.868799 L8.76327705,209.127975 L610.236723,211 L619,166 C618.984549,165.072979 619.055845,164.058631 618.919648,162.99591 Z" id="path-1" stroke="#979797" stroke-width="2" fill="#222222" fill-rule="nonzero" mask="url(#mask-2)"></path>
                </g>
            </g>
            <g id="Combined-Shape" transform="translate(24.000000, 192.000000)">
                <g id="path-3-Clipped">
                    <mask id="mask-4" fill="white">
                        <use xlink:href="#path-3"></use>
                    </mask>
                    <g id="path-3"></g>
                    <path d="M15,33.433664 L18.9249811,33.433664 L24,0 L0,0 L5.0750189,33.433664 L9,33.433664 L9,69 L15,69 L15,33.433664 Z M64.8181818,33.433664 L68.7431629,33.433664 L73.8181818,0 L49.8181818,0 L54.8932007,33.433664 L58.8181818,33.433664 L58.8181818,69 L64.8181818,69 L64.8181818,33.433664 Z M114.636364,33.433664 L118.561345,33.433664 L123.636364,0 L99.636364,0 L104.711383,33.433664 L108.636364,33.433664 L108.636364,69 L114.636364,69 L114.636364,33.433664 Z M563,33.433664 L566.924981,33.433664 L572,0 L548,0 L553.075019,33.433664 L557,33.433664 L557,69 L563,69 L563,33.433664 Z M513.181818,33.433664 L517.106799,33.433664 L522.181818,0 L498.181818,0 L503.256837,33.433664 L507.181818,33.433664 L507.181818,69 L513.181818,69 L513.181818,33.433664 Z M463.363636,33.433664 L467.288617,33.433664 L472.363636,0 L448.363636,0 L453.438655,33.433664 L457.363636,33.433664 L457.363636,69 L463.363636,69 L463.363636,33.433664 Z M413.545455,33.433664 L417.470436,33.433664 L422.545455,0 L398.545455,0 L403.620473,33.433664 L407.545455,33.433664 L407.545455,69 L413.545455,69 L413.545455,33.433664 Z M363.727273,33.433664 L367.652254,33.433664 L372.727273,0 L348.727273,0 L353.802292,33.433664 L357.727273,33.433664 L357.727273,69 L363.727273,69 L363.727273,33.433664 Z M313.909091,33.433664 L317.834072,33.433664 L322.909091,0 L298.909091,0 L303.98411,33.433664 L307.909091,33.433664 L307.909091,69 L313.909091,69 L313.909091,33.433664 Z M264.090909,33.433664 L268.01589,33.433664 L273.090909,0 L249.090909,0 L254.165928,33.433664 L258.090909,33.433664 L258.090909,69 L264.090909,69 L264.090909,33.433664 Z M214.272727,33.433664 L218.197708,33.433664 L223.272727,0 L199.272727,0 L204.347746,33.433664 L208.272727,33.433664 L208.272727,69 L214.272727,69 L214.272727,33.433664 Z M164.454545,33.433664 L168.379527,33.433664 L173.454545,0 L149.454545,0 L154.529564,33.433664 L158.454545,33.433664 L158.454545,69 L164.454545,69 L164.454545,33.433664 Z" id="path-3" stroke="#979797" stroke-width="2" fill="#FFFFFF" fill-rule="nonzero" mask="url(#mask-4)"></path>
                </g>
            </g>
            <path d="M117.275291,89.9280792 C112.160599,89.9280792 108.41143,88.4102199 106.039371,85.374456 C103.682886,82.3386921 102.699118,78.1329572 103.079542,72.7571252 L115.118104,71.0495165 C115.069892,72.946869 115.476834,74.4647283 116.339968,75.6031397 C117.208096,77.0577765 118.534198,77.6269738 120.315416,77.3107484 C122.381939,77.0577681 123.695712,75.8245074 124.256683,73.6109296 C124.75112,71.7768222 124.045444,70.3854512 122.142913,69.436775 L117.240835,67.6342992 C115.52795,67.0018484 113.974968,65.9899423 112.583331,64.5985504 C109.052448,60.8670906 108.005752,56.345135 109.417546,51.0325481 C110.429784,46.8899947 112.605497,43.4431896 115.918356,40.7868961 C119.251009,37.9408674 122.83028,36.5178744 126.667945,36.5178744 C129.70371,36.5178744 132.39711,37.5297805 134.755669,39.5536231 C136.95151,41.5774658 138.594735,44.0439869 139.684345,46.9532608 L128.569156,53.1196254 C127.720252,50.2735967 126.204429,48.977092 124.01601,49.2300723 C122.301565,49.4198075 121.257811,50.4000917 120.884848,52.1709539 C120.475786,53.8153261 121.146997,54.9537205 122.900532,55.5861713 L127.577036,57.3886471 C129.503286,58.0843431 131.062719,59.0646271 132.255813,60.3295287 C136.127429,64.2507239 137.381153,69.057278 135.987953,74.7493354 C135.016469,79.2713591 132.740695,82.971141 129.166239,85.7539246 C125.515342,88.5367082 121.547565,89.9280792 117.275291,89.9280792 Z M159.604327,91.4459535 C152.012067,91.4459535 146.037689,88.7264558 141.718067,83.2873787 C137.497084,77.9115468 136.056579,71.2076687 137.35737,63.1755432 C138.623379,55.333153 142.18333,48.692519 148.001132,43.2534419 C153.833543,37.7511197 160.275931,35 167.368391,35 C174.518047,35 180.215842,37.7194977 184.498483,43.1585748 C188.829977,48.5976519 190.567577,55.2699079 189.672461,63.1755432 C188.767304,71.1444236 185.444582,77.8483017 179.667067,83.2873787 C173.837014,88.7264558 167.136331,91.4459535 159.604327,91.4459535 Z M192.695607,36.6127415 L204.209568,36.6127415 L200.029353,77.5004827 L215.735644,77.5004827 L214.61383,90.1178135 L186.617882,90.2126806 L192.695607,36.6127415 Z M221.679211,36.6127415 L233.107247,36.6127415 L229.078745,90.2126806 L217.071206,90.2126806 L221.679211,36.6127415 Z M248.156509,90.2126806 L232.357117,90.2126806 L236.227401,36.6127415 L251.258848,36.7076087 C257.958401,36.7708538 263.597596,39.3638632 268.210305,44.4867149 C272.752901,49.6095666 274.909859,55.9339799 274.647008,63.4601446 C274.383379,70.9863094 271.721276,77.3423448 266.626121,82.5284416 C261.42697,87.6512932 255.258745,90.2126806 248.156509,90.2126806 Z M318.992533,89.9280792 C313.877838,89.9280792 309.850037,88.4102199 306.921211,85.374456 C304.008639,82.3386921 302.255588,78.1329572 301.654602,72.7571252 L313.38187,71.0495165 C313.679556,72.946869 314.363404,74.4647283 315.434331,75.6031397 C316.568111,77.0577765 317.998206,77.6269738 319.721647,77.3107484 C321.741953,77.0577681 322.830493,75.8245074 322.987473,73.6109296 C323.147448,71.7768222 322.18821,70.3854512 320.112875,69.436775 L314.882655,67.6342992 C313.05469,67.0018484 311.317641,65.9899423 309.673031,64.5985504 C305.464428,60.8670906 303.597813,56.345135 304.048256,51.0325481 C304.312311,46.8899947 305.866462,43.4431896 308.700909,40.7868961 C311.521553,37.9408674 314.845048,36.5178744 318.682713,36.5178744 C321.718478,36.5178744 324.593748,37.5297805 327.316279,39.5536231 C329.876393,41.5774658 331.963979,44.0439869 333.578289,46.9532608 L323.577289,53.1196254 C322.213793,50.2735967 320.463746,48.977092 318.32102,49.2300723 C316.640849,49.4198075 315.774211,50.4000917 315.721386,52.1709539 C315.6098,53.8153261 316.48707,54.9537205 318.355126,55.5861713 L323.358172,57.3886471 C325.410522,58.0843431 327.147697,59.0646271 328.570244,60.3295287 C333.153912,64.2507239 335.282009,69.057278 334.926463,74.7493354 C334.781039,79.2713591 333.182243,82.971141 330.117637,85.7539246 C326.977163,88.5367082 323.264806,89.9280792 318.992533,89.9280792 Z M356.399262,90.2126806 L344.391725,90.2126806 L343.213666,49.2300723 L334.606386,49.2300723 L334.348473,36.6127415 L363.219299,36.6127415 L363.818974,49.2300723 L354.776983,49.2300723 L356.399262,90.2126806 Z M397.26033,78.9234899 L382.784551,78.9234899 L378.546623,90.2126806 L365.184852,90.2126806 L386.683955,36.3281401 L416.736006,90.2126806 L403.374236,90.2126806 L397.26033,78.9234899 Z M437.79998,90.2126806 L425.792443,90.2126806 L421.602952,49.2300723 L412.995671,49.2300723 L411.820674,36.6127415 L440.691501,36.6127415 L442.208259,49.2300723 L433.166268,49.2300723 L437.79998,90.2126806 Z M440.792893,36.5178744 L468.630148,36.5178744 L470.491653,49.2300723 L453.885688,49.2300723 L454.946859,57.29378 L467.385353,57.29378 L469.212144,70.0059779 L456.626896,70.0059779 L457.634064,77.5953498 L474.680441,77.5953498 L476.559272,90.2126806 L447.307828,90.2126806 L440.792893,36.5178744 Z" id="solid-state" fill="#E1E1E1" fill-rule="nonzero"></path>
            <path d="M124.212741,140.928079 C118.861023,140.928079 114.910828,139.41022 112.374016,136.374456 C109.853153,133.338692 108.747429,129.132958 109.048239,123.757125 L121.619229,122.049517 C121.602571,123.946868 122.055569,125.464728 122.979273,126.60314 C123.913773,128.057776 125.311834,128.626973 127.170527,128.310748 C129.328977,128.057767 130.682321,126.824508 131.230527,124.61093 C131.715818,122.776821 130.95264,121.385451 128.944306,120.436775 L123.780614,118.634299 C121.976168,118.001848 120.3323,116.989942 118.850487,115.59855 C115.086765,111.867091 113.909443,107.345135 115.292364,102.032548 C116.278137,97.8899947 118.495289,94.4431896 121.918123,91.7868961 C125.358769,88.9408674 129.083369,87.5178744 133.103902,87.5178744 C136.284325,87.5178744 139.123674,88.5297805 141.629647,90.5536231 C143.964931,92.5774658 145.728774,95.0439869 146.920179,97.9532608 L135.386111,104.119625 C134.447267,101.273597 132.836982,99.977092 130.549419,100.230072 C128.757176,100.419808 127.681347,101.400092 127.322055,103.170954 C126.922753,104.815326 127.64578,105.95372 129.493216,106.586171 L134.421904,108.388647 C136.451091,109.084343 138.10108,110.064627 139.372365,111.329529 C143.494028,115.250724 144.889671,120.057278 143.529749,125.749335 C142.59129,130.271359 140.273824,133.971141 136.581769,136.753925 C132.810207,139.536709 128.683,140.928079 124.212741,140.928079 Z M168.528818,142.445954 C160.584993,142.445954 154.287517,139.726456 149.674147,134.287379 C145.163998,128.911546 143.540272,122.207669 144.763154,114.175543 C145.953418,106.333153 149.56742,99.692519 155.568171,94.2534419 C161.584759,88.7511197 168.28801,86 175.718706,86 C183.209326,86 189.222871,88.7194977 193.796949,94.1585748 C198.421067,99.5976519 200.347378,106.269908 199.536415,114.175543 C198.716411,122.144424 195.346248,128.848301 189.38779,134.287379 C183.375909,139.726456 176.409598,142.445954 168.528818,142.445954 Z M205.838007,134.382246 C201.058802,129.006414 199.103934,122.270914 199.934075,114.175543 C200.742214,106.269908 204.031108,99.5976519 209.763316,94.1585748 C215.623321,88.7194977 222.218333,86 229.589102,86 C238.637771,86 245.918884,90.3638453 251.503756,99.0916665 L241.189328,106.586171 C237.886979,101.33683 233.702475,98.7121979 228.610244,98.7121979 C224.366718,98.7121979 220.695134,100.198435 217.583635,103.170954 C214.456449,106.143473 212.688277,109.811633 212.290333,114.175543 C211.885924,118.6027 213.00262,122.302481 215.652377,125.275 C218.317349,128.247518 221.837299,129.733756 226.200901,129.733756 C231.811248,129.733756 236.678258,126.951013 240.773628,121.385447 L250.57652,128.59535 C243.650255,137.829131 235.166435,142.445954 225.20513,142.445954 C217.135213,142.445954 210.667071,139.758078 205.838007,134.382246 Z M255.328862,87.6127415 L267.301428,87.6127415 L265.006967,141.212681 L252.44306,141.212681 L255.328862,87.6127415 Z M302.090177,129.92349 L286.939751,129.92349 L281.473477,141.212681 L267.492588,141.212681 L294.880368,87.3281401 L321.43237,141.212681 L307.451481,141.212681 L302.090177,129.92349 Z M321.099214,87.6127415 L333.1618,87.6127415 L333.890986,128.500483 L350.329812,128.500483 L350.743068,141.117813 L321.46189,141.212681 L321.099214,87.6127415 Z M387.856641,134.382246 C382.207037,129.006414 379.164234,122.270914 378.690625,114.175543 C378.22961,106.269908 380.450461,99.5976519 385.314127,94.1585748 C390.307479,88.7194977 396.46988,86 403.84065,86 C412.88932,86 420.864852,90.3638453 427.842231,99.0916665 L418.727419,106.586171 C414.584451,101.33683 409.980305,98.7121979 404.888074,98.7121979 C400.644548,98.7121979 397.210539,100.198435 394.57462,103.170954 C391.92358,106.143473 390.74376,109.811633 391.046881,114.175543 C391.354943,118.6027 393.068012,122.302481 396.197546,125.275 C399.342861,128.247518 403.10319,129.733756 407.466793,129.733756 C413.077139,129.733756 417.494192,126.951013 420.69112,121.385447 L431.658277,128.59535 C426.227942,137.829131 418.49412,142.445954 408.532815,142.445954 C400.462898,142.445954 393.557948,139.758078 387.856641,134.382246 Z M427.406382,87.6127415 L439.46897,87.6127415 L444.1934,128.500483 L460.632224,128.500483 L462.291487,141.117813 L433.019699,141.212681 L427.406382,87.6127415 Z M482.015292,142.066485 C478.233792,142.066485 474.656695,141.07039 471.292247,139.07817 C467.938921,137.085949 465.221074,134.382264 463.13818,130.967029 C461.468645,128.24749 460.262995,124.041755 459.517404,118.349698 L455.520536,87.6127415 L467.583122,87.6127415 L471.933563,118.444565 C472.490718,122.365761 473.045331,124.737416 473.597271,125.559601 C475.079546,128.089404 477.255959,129.354287 480.122497,129.354287 C482.61514,129.354287 484.347071,128.247515 485.314686,126.033937 C485.803363,124.769035 485.779047,122.39738 485.243383,118.918901 L480.455883,87.6127415 L492.428449,87.6127415 L497.559805,118.918901 C498.531082,124.800694 498.375811,129.322649 497.085114,132.484903 C494.233771,138.872656 489.200145,142.066485 482.015292,142.066485 Z M517.797082,141.117813 L512.240801,141.212681 L501.377271,141.212681 L492.5466,87.6127415 L507.77664,87.7076087 C512.097962,87.7076087 516.014385,89.25709 519.539037,92.356099 C523.153529,95.5183531 525.39189,99.3130011 526.241733,103.740157 C526.837523,106.839166 526.46028,109.96975 525.10163,113.132005 C528.450101,116.483994 530.524021,120.183776 531.311515,124.231461 C532.248313,129.038087 531.438105,133.05409 528.866374,136.279589 C526.26514,139.441843 522.571231,141.054568 517.797082,141.117813 Z" id="social-club" fill="#E1E1E1" fill-rule="nonzero"></path>
            <rect id="Rectangle-4" fill-opacity="0.189999998" fill="#000000" fill-rule="nonzero" style="mix-blend-mode: darken;" x="24" y="192" width="572" height="9"></rect>
        </g>
    </g>
</svg>